<svg width="72" height="62" viewBox="0 0 72 62" fill="none" xmlns="http://www.w3.org/2000/svg">
<path d="M44.3416 35.7943L27.4976 52.5719L36.0173 60.9995L64.2143 33.082C71.0472 25.6783 72.7926 19.2685 69.119 11.2284L52.9198 27.328L48.6405 23.0851L40.1794 31.5708L44.3416 35.7943Z" fill="white"/>
<path d="M60.7361 2.83955L19.0365 44.3768L5.31908 30.6603C2.80716 27.5619 1.94188 25.464 1.05924 21.2834C0.17991 8.57418 9.18811 0.708437 20.1894 1.03779C25.3598 1.70476 27.9159 2.80225 31.6988 6.40432L23.1401 14.8125C18.6187 10.3974 12.1904 14.682 13.1688 20.1089C13.4746 21.8051 14.727 23.1249 15.9773 24.3111L19.0756 27.2505L39.8277 6.40432C46.491 0.572821 52.998 -0.415241 60.7361 2.83955Z" fill="white"/>
<path d="M44.3416 35.7943L27.4976 52.5719L36.0173 60.9995L64.2143 33.082C71.0472 25.6783 72.7926 19.2685 69.119 11.2284L52.9198 27.328L48.6405 23.0851L40.1794 31.5708L44.3416 35.7943Z" stroke="#0D0D0D"/>
<path d="M60.7361 2.83955L19.0365 44.3768L5.31908 30.6603C2.80716 27.5619 1.94188 25.464 1.05924 21.2834C0.17991 8.57418 9.18811 0.708437 20.1894 1.03779C25.3598 1.70476 27.9159 2.80225 31.6988 6.40432L23.1401 14.8125C18.6187 10.3974 12.1904 14.682 13.1688 20.1089C13.4746 21.8051 14.727 23.1249 15.9773 24.3111L19.0756 27.2505L39.8277 6.40432C46.491 0.572821 52.998 -0.415241 60.7361 2.83955Z" stroke="#0D0D0D"/>
</svg>
