<svg width="237" height="48" viewBox="0 0 237 48" fill="none" xmlns="http://www.w3.org/2000/svg">
<path d="M48.5587 37.2815C45.9434 37.2815 43.6197 36.7229 41.5977 35.6056C39.5707 34.4882 37.9837 32.9161 36.8318 30.8941C35.6799 28.872 35.1014 26.5336 35.1014 23.8787C35.1014 21.2239 35.67 18.8014 36.8022 16.7052C37.9343 14.609 39.5065 12.9775 41.5137 11.8107C43.5209 10.639 45.884 10.0557 48.6081 10.0557C51.1542 10.0557 53.4086 10.6143 55.3614 11.7316C57.3142 12.8489 58.8419 14.3766 59.9444 16.3146C61.0419 18.2526 61.5957 20.4081 61.5957 22.7812C61.5957 23.1668 61.5857 23.5672 61.5709 23.9875C61.5511 24.4077 61.5264 24.8428 61.4918 25.2976H41.7559C41.8944 27.3196 42.6013 28.9116 43.8768 30.0635C45.1523 31.2154 46.6948 31.7889 48.5092 31.7889C49.8688 31.7889 51.0108 31.4824 51.9403 30.8743C52.8648 30.2662 53.5569 29.4702 54.0068 28.4913H60.8145C60.325 30.1327 59.5143 31.6257 58.3821 32.9655C57.25 34.3103 55.8508 35.3683 54.1946 36.1346C52.5384 36.9009 50.6598 37.2865 48.5685 37.2865L48.5587 37.2815ZM48.6131 15.5038C46.9717 15.5038 45.5231 15.9636 44.2674 16.893C43.0116 17.8175 42.2107 19.2216 41.8597 21.1052H54.7879C54.6841 19.3946 54.0562 18.0351 52.9043 17.0216C51.7524 16.0081 50.3236 15.5038 48.6131 15.5038Z" fill="#782BF1"/>
<path d="M84.1594 36.6489V29.8412H66.0995V24.5018L83.2695 0H90.8583V24.0272H95.6737V29.8362H90.8583V36.6439H84.1594V36.6489ZM73.2681 24.0321H84.5747V7.38613L73.2681 24.0321Z" fill="#782BF1"/>
<path d="M100.805 36.6487V10.6835H106.773L107.401 15.5532C108.345 13.8773 109.625 12.5424 111.247 11.5487C112.868 10.555 114.782 10.0557 116.977 10.0557V17.1204H115.093C113.625 17.1204 112.32 17.3479 111.168 17.8027C110.016 18.2575 109.116 19.0436 108.473 20.156C107.826 21.2733 107.504 22.8257 107.504 24.8131V36.6438H100.805V36.6487Z" fill="#782BF1"/>
<path d="M133.104 36.6488C130.38 36.6488 128.199 35.9863 126.558 34.6614C124.917 33.3364 124.096 30.9782 124.096 27.5916V16.285H119.646V10.6836H124.096L124.882 3.72266H130.8V10.6836H137.815V16.285H130.8V27.646C130.8 28.9018 131.072 29.7669 131.611 30.2366C132.15 30.7063 133.084 30.9436 134.414 30.9436H137.662V36.6488H133.109H133.104Z" fill="#782BF1"/>
<path d="M0 36.9998V0.163086H6.73849V15.4792H23.2609V0.163086H29.9945V36.9998H23.2609V20.9471H6.73849V36.9998H0Z" fill="#782BF1"/>
<path d="M159.618 37.4941C157.675 37.4941 155.949 37.0936 154.437 36.3026C152.924 35.5066 151.772 34.3943 150.976 32.9606L150.595 36.9255H146.966V2.5459H150.976V17.155C151.737 16.008 152.83 14.9748 154.249 14.0503C155.663 13.1258 157.472 12.666 159.667 12.666C162.02 12.666 164.077 13.2098 165.827 14.2876C167.577 15.3703 168.937 16.8485 169.911 18.7272C170.88 20.6058 171.369 22.7366 171.369 25.1245C171.369 27.5124 170.885 29.6383 169.911 31.4972C168.942 33.361 167.572 34.8244 165.802 35.8923C164.038 36.9601 161.976 37.4891 159.618 37.4891V37.4941ZM159.188 34.0087C160.779 34.0087 162.179 33.6329 163.39 32.8864C164.601 32.1399 165.555 31.0967 166.252 29.7569C166.954 28.4221 167.3 26.8598 167.3 25.08C167.3 23.3002 166.949 21.738 166.252 20.4031C165.55 19.0683 164.596 18.0251 163.39 17.2737C162.179 16.5271 160.779 16.1514 159.188 16.1514C157.596 16.1514 156.196 16.5271 154.985 17.2737C153.774 18.0202 152.82 19.0634 152.123 20.4031C151.421 21.738 151.075 23.3002 151.075 25.08C151.075 26.8598 151.426 28.4221 152.123 29.7569C152.825 31.0918 153.779 32.1349 154.985 32.8864C156.196 33.6329 157.596 34.0087 159.188 34.0087Z" fill="white"/>
<path d="M176.946 36.9206V2.5459H180.955V36.9255H176.946V36.9206Z" fill="white"/>
<path d="M198.338 37.4941C196.108 37.4941 194.106 36.9849 192.321 35.9664C190.537 34.948 189.128 33.5094 188.094 31.6455C187.061 29.7817 186.542 27.5965 186.542 25.0801C186.542 22.5636 187.066 20.3784 188.119 18.5146C189.167 16.6508 190.596 15.2121 192.391 14.1937C194.19 13.1752 196.202 12.666 198.432 12.666C200.662 12.666 202.664 13.1752 204.449 14.1937C206.233 15.2121 207.637 16.6508 208.676 18.5146C209.709 20.3784 210.228 22.5636 210.228 25.0801C210.228 27.5965 209.704 29.7817 208.651 31.6455C207.603 33.5094 206.174 34.948 204.379 35.9664C202.58 36.9849 200.568 37.4941 198.338 37.4941ZM198.338 34.0581C199.707 34.0581 200.978 33.7219 202.16 33.0545C203.341 32.3871 204.29 31.3835 205.022 30.0486C205.754 28.7138 206.12 27.0576 206.12 25.085C206.12 23.1124 205.764 21.4562 205.047 20.1214C204.33 18.7865 203.381 17.7829 202.204 17.1155C201.027 16.4481 199.772 16.1119 198.432 16.1119C197.092 16.1119 195.787 16.4481 194.61 17.1155C193.434 17.7829 192.48 18.7865 191.748 20.1214C191.016 21.4562 190.65 23.1124 190.65 25.085C190.65 27.0576 191.016 28.7138 191.748 30.0486C192.48 31.3835 193.429 32.3871 194.591 33.0545C195.752 33.7219 197.003 34.0581 198.338 34.0581Z" fill="white"/>
<path d="M224.17 29.4751C222.835 29.4751 221.609 29.3021 220.491 28.951L218.104 31.1956C218.455 31.4526 218.89 31.6652 219.419 31.8383C219.943 32.0113 220.699 32.1744 221.688 32.3178C222.672 32.4612 224.056 32.6145 225.841 32.7727C229.025 32.9951 231.299 33.7268 232.668 34.9677C234.038 36.2086 234.72 37.8302 234.72 39.8374C234.72 41.2069 234.344 42.5121 233.598 43.753C232.851 44.9939 231.704 46.0123 230.162 46.8083C228.619 47.6042 226.637 47.9998 224.219 47.9998C222.088 47.9998 220.19 47.7229 218.539 47.1642C216.882 46.6056 215.592 45.7651 214.673 44.633C213.748 43.5008 213.288 42.077 213.288 40.3615C213.288 39.4716 213.526 38.5075 214.005 37.4743C214.48 36.441 215.375 35.4621 216.68 34.5376C215.978 34.2509 215.385 33.9394 214.89 33.6082C214.396 33.272 213.941 32.9012 213.531 32.4859V31.3884L217.589 27.3789C215.711 25.787 214.771 23.6858 214.771 21.0755C214.771 19.5182 215.137 18.0993 215.869 16.8237C216.601 15.5532 217.669 14.5397 219.068 13.7932C220.467 13.0466 222.172 12.6709 224.175 12.6709C225.544 12.6709 226.785 12.8637 227.897 13.2444H236.633V16.2503L232.194 16.4431C233.118 17.7779 233.578 19.3253 233.578 21.0755C233.578 22.6377 233.202 24.0517 232.456 25.3272C231.709 26.6027 230.641 27.6113 229.257 28.3578C227.873 29.1043 226.177 29.48 224.17 29.48V29.4751ZM217.199 39.9808C217.199 41.5727 217.866 42.7593 219.206 43.5404C220.541 44.3215 222.212 44.7121 224.219 44.7121C226.226 44.7121 227.779 44.282 228.97 43.4217C230.162 42.5615 230.76 41.4145 230.76 39.9858C230.76 38.9673 230.345 38.0824 229.519 37.3358C228.693 36.5893 227.161 36.1493 224.936 36.0208C223.186 35.8922 221.673 35.734 220.402 35.5412C219.097 36.2432 218.237 36.9997 217.827 37.8105C217.411 38.6212 217.204 39.348 217.204 39.9808H217.199ZM224.17 26.1825C225.856 26.1825 227.2 25.7474 228.204 24.8674C229.208 23.9923 229.707 22.7267 229.707 21.0705C229.707 19.4143 229.208 18.1981 228.204 17.3231C227.2 16.448 225.856 16.008 224.17 16.008C222.484 16.008 221.09 16.448 220.086 17.3231C219.082 18.1981 218.583 19.4489 218.583 21.0705C218.583 22.6921 219.082 23.9923 220.086 24.8674C221.09 25.7425 222.449 26.1825 224.17 26.1825Z" fill="white"/>
</svg>
